<?xml version="1.0" ?><!DOCTYPE svg  PUBLIC '-//W3C//DTD SVG 1.1//EN'  'http://www.w3.org/Graphics/SVG/1.1/DTD/svg11.dtd'><svg enable-background="new 0 0 24 24" height="24px" id="Layer_1" version="1.1" viewBox="0 0 24 24" width="24px" xml:space="preserve" xmlns="http://www.w3.org/2000/svg" xmlns:xlink="http://www.w3.org/1999/xlink"><g><g><path d="M6.5,17.3c-0.3,0-0.5-0.2-0.5-0.5v-6.8c0-1.3-1-2.3-2.3-2.3c-1.2,0-2.3,1-2.3,2.3v6.8c0,0.3-0.2,0.5-0.5,0.5    s-0.5-0.2-0.5-0.5v-6.8c0-1.8,1.5-3.3,3.3-3.3C5.6,6.8,7,8.3,7,10.1v6.8C7,17.1,6.8,17.3,6.5,17.3z"/></g><g><path d="M1,14.4c-0.3,0-0.5-0.2-0.5-0.5V7.2c0-0.3,0.2-0.5,0.5-0.5s0.5,0.2,0.5,0.5v6.8C1.5,14.2,1.3,14.4,1,14.4z"/></g><g><path d="M12.1,17.3c-0.3,0-0.5-0.2-0.5-0.5v-6.8c0-1.3-1-2.3-2.3-2.3c-1.2,0-2.3,1-2.3,2.3v6.8c0,0.3-0.2,0.5-0.5,0.5    S6,17.1,6,16.8v-6.8c0-1.8,1.5-3.3,3.3-3.3c1.8,0,3.3,1.5,3.3,3.3v6.8C12.6,17.1,12.3,17.3,12.1,17.3z"/></g><g><path d="M18.4,17.3c-1.3,0-2.6-0.5-3.6-1.5c-2-2-2-5.3,0-7.3c2-2,5.3-2,7.3,0c0.8,0.8,1.3,1.8,1.4,3c0,0.1,0,0.3-0.1,0.4    c-0.1,0.1-0.2,0.2-0.4,0.2h-6.7c-0.3,0-0.5-0.2-0.5-0.5s0.2-0.5,0.5-0.5h6.1c-0.2-0.7-0.5-1.3-1.1-1.8c-1.6-1.6-4.2-1.6-5.9,0    c-1.6,1.6-1.6,4.2,0,5.9c1.6,1.6,4.2,1.6,5.9,0c0.2-0.2,0.5-0.5,0.7-1c0.1-0.2,0.4-0.3,0.7-0.2c0.2,0.1,0.3,0.4,0.2,0.7    c-0.3,0.5-0.5,0.9-0.9,1.2C21,16.8,19.7,17.3,18.4,17.3z"/></g></g></svg>